<svg xmlns="http://www.w3.org/2000/svg" viewBox="0 0 560 220" role="img" aria-label="kids katalog">
  <g fill="#FFFFFF">
    <!-- Stars above the big k -->
    <path d="M78 34l7.2 14.8 16.3 2.4-11.8 11.5 2.8 16.2L78 71.3 63.5 79l2.8-16.2-11.8-11.5 16.3-2.4L78 34z"/>
    <path d="M118 22l5.2 10.7 11.8 1.7-8.5 8.3 2 11.7L118 48.6l-10.5 5.5 2-11.7-8.5-8.3 11.8-1.7L118 22z"/>
    <!-- Star as the i-dot -->
    <path d="M268 78l4.2 8.6 9.5 1.4-6.9 6.7 1.6 9.4L268 99.4l-8.4 4.4 1.6-9.4-6.9-6.7 9.5-1.4L268 78z"/>

    <!-- Big lowercase bubble k -->
    <text
      x="24"
      y="178"
      font-family="Fredoka, 'Arial Rounded MT Bold', Nunito, Arial, sans-serif"
      font-size="168"
      font-weight="700"
      letter-spacing="-4"
    >k</text>

    <!-- Matching rounded rest; dotless i so the star is the tittle -->
    <text
      x="168"
      y="128"
      font-family="Fredoka, 'Arial Rounded MT Bold', Nunito, Arial, sans-serif"
      font-size="64"
      font-weight="500"
    >ıds katalog</text>
  </g>
</svg>
